<?xml version="1.0" standalone="no"?>
<!DOCTYPE svg PUBLIC "-//W3C//DTD SVG 20010904//EN"
 "http://www.w3.org/TR/2001/REC-SVG-20010904/DTD/svg10.dtd">
<svg version="1.0" xmlns="http://www.w3.org/2000/svg"
 width="2100.000000pt" height="2100.000000pt" viewBox="0 0 2100.000000 2100.000000"
 preserveAspectRatio="xMidYMid meet">

<g transform="translate(0.000000,2100.000000) scale(0.100000,-0.100000)"
fill="#000000" stroke="none">
<path d="M11850 10523 c-14 -3 -33 -12 -43 -21 -10 -9 -37 -18 -60 -21 -33 -5
-45 -12 -55 -34 -14 -29 -46 -47 -85 -48 -24 0 -97 -91 -97 -120 0 -9 -11 -32
-24 -51 -13 -19 -34 -68 -46 -109 -12 -41 -29 -85 -38 -99 -15 -24 -33 -93
-34 -135 0 -11 5 -66 11 -122 8 -66 8 -109 2 -121 -6 -12 -5 -28 5 -51 8 -20
12 -47 8 -66 -4 -22 0 -41 10 -57 9 -14 27 -53 40 -86 14 -34 34 -73 45 -87
11 -14 23 -39 26 -55 8 -38 139 -172 185 -189 49 -18 70 -28 106 -51 85 -54
262 -91 297 -61 8 6 38 20 68 30 95 33 168 70 198 99 38 36 98 161 107 221 4
25 11 52 17 59 22 27 31 245 12 297 -12 35 -12 42 1 51 20 16 1 69 -21 60 -8
-3 -15 -1 -15 4 0 6 5 10 10 10 16 0 12 27 -10 62 -11 18 -20 48 -20 66 0 37
-84 244 -106 263 -8 6 -14 17 -14 23 0 6 -13 38 -30 71 -16 33 -30 67 -30 77
0 20 -48 62 -104 90 -22 11 -52 29 -65 39 -17 14 -40 19 -85 19 -49 0 -69 5
-98 25 -20 14 -38 24 -40 24 -2 -1 -14 -4 -28 -6z"/>
<path d="M7755 10471 c-74 -22 -250 -147 -278 -197 -7 -12 -20 -36 -31 -54
-10 -18 -20 -51 -22 -73 -2 -22 -8 -45 -13 -51 -5 -6 -12 -45 -15 -86 -3 -41
-8 -97 -11 -125 -3 -27 -5 -65 -6 -83 0 -20 -7 -37 -19 -44 -17 -11 -17 -13 2
-39 17 -23 20 -38 16 -96 -3 -37 1 -147 7 -243 16 -220 40 -305 106 -386 19
-23 39 -49 44 -58 6 -9 30 -24 55 -32 25 -9 53 -23 63 -31 18 -17 38 -29 95
-59 29 -15 41 -15 84 -6 27 7 66 12 87 12 25 0 44 7 56 20 11 12 31 20 51 20
18 0 36 5 39 10 3 6 13 10 22 10 9 0 39 16 68 35 44 29 58 46 93 117 48 98 68
155 78 223 4 28 11 61 16 74 5 13 11 65 14 115 2 50 9 114 14 143 7 38 5 66
-5 105 -7 29 -11 65 -8 79 2 14 -5 58 -16 96 -13 45 -19 82 -15 102 12 58 -48
238 -103 311 -35 46 -58 66 -149 124 -49 32 -56 33 -121 29 -57 -5 -77 -1
-118 17 -28 13 -52 24 -55 25 -3 1 -14 -1 -25 -4z"/>
</g>
</svg>
